<?xml version="1.0" encoding="utf-8"?>
<!-- Generator: Adobe Illustrator 22.0.0, SVG Export Plug-In . SVG Version: 6.00 Build 0)  -->
<svg version="1.1" xmlns="http://www.w3.org/2000/svg" xmlns:xlink="http://www.w3.org/1999/xlink" x="0px" y="0px"
	 viewBox="0 0 78.5 123.1" style="enable-background:new 0 0 78.5 123.1;" xml:space="preserve">
<style type="text/css">
	.st0{display:none;}
	.st1{display:inline;}
	.st2{fill:#FFF100;stroke:#000000;stroke-miterlimit:10;}
	.st3{display:inline;fill:#FFFFFF;}
	.st4{display:inline;fill:#E0808A;}
	.st5{fill:#FFFFFF;}
	.st6{fill:#E0808A;}
	.st7{fill:none;stroke:#FFFFFF;stroke-width:4;stroke-miterlimit:10;}
	.st8{fill:none;stroke:#FFFFFF;stroke-width:4;stroke-linecap:round;stroke-miterlimit:10;}
	.st9{fill:none;stroke:#000000;stroke-width:4;stroke-linecap:round;stroke-miterlimit:10;}
	.st10{fill:#FFFFFF;stroke:#000000;stroke-width:3.2768;stroke-linecap:round;stroke-miterlimit:10;}
	.st11{fill:#E60012;stroke:#000000;stroke-width:3.2768;stroke-linecap:round;stroke-linejoin:round;stroke-miterlimit:10;}
	.st12{fill:none;stroke:#000000;stroke-width:3.2768;stroke-linecap:round;stroke-linejoin:round;stroke-miterlimit:10;}
	
		.st13{display:inline;fill:#FFFFFF;stroke:#000000;stroke-width:6;stroke-linecap:round;stroke-linejoin:round;stroke-miterlimit:10;}
	.st14{fill:none;stroke:#000000;stroke-width:3;stroke-linecap:round;stroke-linejoin:round;stroke-miterlimit:10;}
	.st15{fill:#FFFFFF;stroke:#000000;stroke-width:6;stroke-linecap:round;stroke-linejoin:round;stroke-miterlimit:10;}
	.st16{fill:#785148;}
	.st17{display:inline;fill:none;stroke:#000000;stroke-miterlimit:10;}
	.st18{fill:#44918A;}
	.st19{fill:#1A2F6A;}
	.st20{display:inline;fill:#45918B;}
	.st21{display:inline;fill:#1A2F6A;}
	
		.st22{display:inline;fill:#45918B;stroke:#1A2F6A;stroke-width:8.5322;stroke-linecap:round;stroke-linejoin:round;stroke-miterlimit:10;}
</style>
<g id="レイヤー_3" class="st0">
	<g class="st1">
		<polygon class="st2" points="77.7,170.2 77.7,170.2 77.7,170.2 		"/>
		<path class="st2" d="M79.8,28.5L79.8,28.5c-0.7,0-1.4-0.1-2.1-0.1c-0.7,0-1.4,0-2.1,0.1C37.4,27.4,6.9-3.8,6.9-42.3
			c0-39.1,31.7-70.9,70.9-70.9h0v-0.1h0C-0.6-113.3-64-49.8-64,28.5c0,78.3,63.5,141.7,141.7,141.7h0c39.1,0,70.9-31.7,70.9-70.9
			C148.6,60.9,118,29.7,79.8,28.5z"/>
	</g>
</g>
<g id="レイヤー_1" class="st0">
	<g>
		<g class="st1">
			<path d="M180.9-222.5c5.8,28-11.7,56.1-39,62.8c-27.3,6.7-54.1-10.5-59.9-38.5c-5.8-28,11.7-56.1,39-62.8
				C148.4-267.7,175.2-250.5,180.9-222.5z"/>
		</g>
		<path class="st3" d="M172.8-238c1.8,20.9-15,39.4-37.5,41.3c-22.5,2-42.3-13.4-44.1-34.2c-1.8-20.9,15-39.4,37.5-41.3
			C151.3-274.2,171-258.9,172.8-238z"/>
	</g>
	<path class="st3" d="M-182.7-90c-21.5,0-38.9-17.9-38.9-39.8V-160c0-19.7,13.8-36.3,32.8-39.3c0.5-0.1,0.9-0.1,1.4-0.1
		c3.3,0,6.4,2,7.8,5.1c1.5,3.6,0.5,7.7-2.6,10.1c-1.2,0.9-3.3,2.9-3.3,5.8v16.3c0,4.6,5.3,8.5,11.5,8.5h33.1
		c6.2,0,11.5-3.9,11.5-8.5v-16.3c0-2.8-2-4.8-3.2-5.8c-3.1-2.4-4.1-6.6-2.5-10.2c1.4-3.1,4.5-5,7.8-5c0.5,0,1,0,1.5,0.1
		c18.7,3.3,32.3,19.8,32.3,39.2v30.2c0,22-17.5,39.8-38.9,39.8H-182.7z"/>
	<path class="st4" d="M-127.4-190.9c4,3.1,6.5,7.5,6.5,12.5v16.3c0,9.4-9,17-20,17H-174c-11.1,0-20-7.6-20-17v-16.3
		c0-5,2.5-9.4,6.6-12.5c-14.5,2.4-25.6,15.3-25.6,30.9v30.2c0,17.3,13.6,31.3,30.4,31.3h50.2c16.8,0,30.4-14,30.4-31.3V-160
		C-102.1-175.5-113.1-188.3-127.4-190.9z"/>
	<g class="st1">
		<path class="st5" d="M-253-97.8c-3.9,0-7.9-0.6-11.7-1.6c-11-3.1-20.2-10.4-25.7-20.4c-5.6-10-6.9-21.6-3.8-32.6
			c5.2-18.4,22.2-31.2,41.2-31.2c3.9,0,7.9,0.6,11.7,1.6c11,3.1,20.2,10.4,25.7,20.4c5.6,10,6.9,21.6,3.8,32.6
			C-216.9-110.7-233.9-97.8-253-97.8C-253-97.8-253-97.8-253-97.8z M-244.6-155.9c-4.5,0-10.7,4.7-13.2,13.5
			c-2.4,8.6,0.3,17.5,5.8,19.1c0.6,0.2,1.2,0.2,1.8,0.2c4.5,0,10.7-4.7,13.2-13.5c1.3-4.7,1.2-9.5-0.3-13.3
			c-0.7-1.8-2.3-4.9-5.5-5.8C-243.4-155.8-244-155.9-244.6-155.9z"/>
		<path class="st6" d="M-243.6-173.8c-18.3-5.2-37.3,5.4-42.4,23.7c-5.2,18.3,5.4,37.3,23.7,42.4c18.3,5.2,37.3-5.4,42.4-23.7
			C-214.7-149.6-225.3-168.6-243.6-173.8z M-254.3-115.1c-10.2-2.9-15.4-16.2-11.6-29.6c3.8-13.5,15.2-22,25.4-19.1
			c10.2,2.9,15.4,16.2,11.6,29.6C-232.7-120.7-244.1-112.2-254.3-115.1z"/>
		<path class="st6" d="M-257-132.3L-257-132.3L-257-132.3c2.4-2.7,6.6-2.9,9.3-0.5c2.7,2.4,2.9,6.6,0.5,9.3h0c0,0-0.1,0.1-0.1,0.1
			c-2.3,2.7-2,6.7,0.6,9.1c2.7,2.4,6.9,2.2,9.3-0.5c-4.8,5.4-13.1,5.9-18.5,1C-261.3-118.6-261.8-126.9-257-132.3z"/>
		<path class="st6" d="M-251.3-152.5L-251.3-152.5L-251.3-152.5c0.6,3.6,4.1,5.9,7.6,5.3c3.6-0.6,5.9-4.1,5.3-7.6h0
			c0-0.1,0-0.1,0-0.2c-0.5-3.5,1.8-6.8,5.3-7.4c3.6-0.6,7,1.7,7.6,5.3c-1.3-7.1-8.1-11.9-15.2-10.6
			C-247.8-166.4-252.5-159.6-251.3-152.5z"/>
		<path class="st6" d="M-234.7-137c-1,3.5-3.7,5.9-6.1,5.2c-2.4-0.7-3.5-4.1-2.5-7.6c1-3.5,3.7-5.9,6.1-5.2
			C-234.8-143.9-233.7-140.5-234.7-137z"/>
	</g>
	<g class="st1">
		<path class="st6" d="M109.7-167.5c0,46.8-37.9,84.7-84.7,84.7c-46.8,0-84.7-37.9-84.7-84.7c0-46.8,37.9-84.7,84.7-84.7
			C71.8-252.2,109.7-214.3,109.7-167.5z"/>
		<path class="st5" d="M82.6-167.7c0,31.8-25.8,57.6-57.6,57.6c-31.8,0-57.6-25.8-57.6-57.6c0-31.8,25.8-57.6,57.6-57.6
			C56.8-225.3,82.6-199.5,82.6-167.7z"/>
		<rect x="-9.3" y="-146.2" class="st6" width="68.7" height="46"/>
		<ellipse class="st5" cx="25" cy="-140.8" rx="26" ry="19"/>
		<g>
			<path class="st6" d="M59.3-147.3c-0.9-19-16.9-33.6-35.9-32.8c-19,0.9-33.6,16.9-32.8,35.9c0.9,19,16.9,33.6,35.9,32.8
				C45.5-112.3,60.2-128.3,59.3-147.3z M0.3-138.9c-0.5-10.6,10.4-19.8,24.4-20.4c14-0.6,25.7,7.5,26.2,18.1
				c0.5,10.6-10.4,19.8-24.4,20.4C12.5-120.1,0.8-128.3,0.3-138.9z"/>
			<path class="st6" d="M15.8-146.9L15.8-146.9L15.8-146.9c3.3,1.4,4.9,5.3,3.4,8.6c-1.4,3.3-5.3,4.9-8.6,3.4l0,0
				c-0.1,0-0.1-0.1-0.2-0.1c-3.3-1.3-7,0.2-8.5,3.5c-1.4,3.3,0.1,7.2,3.4,8.6c-6.7-2.9-9.7-10.6-6.8-17.3
				C1.4-146.7,9.1-149.7,15.8-146.9z"/>
			<path class="st6" d="M36.7-147.8L36.7-147.8L36.7-147.8c-3.2,1.7-4.4,5.7-2.6,8.9c1.7,3.2,5.7,4.4,8.9,2.6v0
				c0.1,0,0.1-0.1,0.2-0.1c3.2-1.6,7-0.4,8.7,2.7c1.7,3.2,0.6,7.2-2.6,8.9c6.4-3.5,8.7-11.4,5.2-17.8
				C51-148.9,43.1-151.3,36.7-147.8z"/>
			<path class="st6" d="M27.2-127.2c-3.7,0.2-6.7-1.7-6.8-4.1c-0.1-2.4,2.8-4.6,6.4-4.7c3.7-0.2,6.7,1.7,6.8,4.1
				C33.8-129.5,30.9-127.4,27.2-127.2z"/>
		</g>
		<g>
			
				<ellipse transform="matrix(0.9999 -1.351704e-02 1.351704e-02 0.9999 2.4962 0.3211)" class="st5" cx="25" cy="-184.5" rx="20.4" ry="20.4"/>
		</g>
		<g>
			
				<ellipse transform="matrix(0.9999 -1.219709e-02 1.219709e-02 0.9999 2.2522 0.2912)" class="st5" cx="25" cy="-184.5" rx="16.8" ry="16.8"/>
			<path class="st6" d="M25-200.1c8.6,0,15.6,7,15.6,15.6s-7,15.6-15.6,15.6c-8.6,0-15.6-7-15.6-15.6S16.4-200.1,25-200.1 M25-202.6
				c-10,0-18.1,8.1-18.1,18.1S15-166.4,25-166.4c10,0,18.1-8.1,18.1-18.1S35-202.6,25-202.6L25-202.6z"/>
		</g>
		<path class="st6" d="M27.8-184.5c0,1.6-1.3,2.8-2.8,2.8c-1.6,0-2.8-1.3-2.8-2.8c0-1.6,1.3-2.8,2.8-2.8
			C26.6-187.3,27.8-186.1,27.8-184.5z"/>
		<line class="st7" x1="25" y1="-258" x2="25" y2="-213"/>
		<path class="st8" d="M2.1-240.7c7.2-2.3,14.9-3.5,22.9-3.5c7.7,0,15.1,1.1,22.1,3.3"/>
		<path class="st8" d="M2.1-230c7.2-2.3,14.9-3.5,22.9-3.5c7.7,0,15.1,1.1,22.1,3.3"/>
	</g>
</g>
<g id="レイヤー_4">
	<g>
		<g>
			<line class="st9" x1="3.7" y1="24" x2="73.7" y2="24"/>
			<line class="st9" x1="30.7" y1="2" x2="30.7" y2="51"/>
			<path class="st10" d="M1.6,51.8C1.6,43.6,8.2,37,16.4,37c8.1,0,14.7,6.6,14.7,14.7c0,8.1-6.6,14.7-14.7,14.7
				C8.2,66.5,1.6,59.9,1.6,51.8"/>
			<path d="M31.2,51.5c0,4.1-3.3,7.4-7.4,7.4c-4.1,0-7.4-3.3-7.4-7.4c0-4.1,3.3-7.4,7.4-7.4C27.9,44.1,31.2,47.4,31.2,51.5z"/>
			<line class="st9" x1="47.7" y1="2" x2="47.7" y2="51"/>
			<path class="st10" d="M47.4,51.8c0,8.1,6.6,14.7,14.7,14.7c8.1,0,14.7-6.6,14.7-14.7c0-8.1-6.6-14.7-14.7-14.7
				C54,37,47.4,43.6,47.4,51.8z"/>
			<path d="M47.3,51.5c0,4.1,3.3,7.4,7.4,7.4c4.1,0,7.4-3.3,7.4-7.4c0-4.1-3.3-7.4-7.4-7.4C50.6,44.1,47.3,47.4,47.3,51.5z"/>
		</g>
		<g>
			<path class="st11" d="M69.6,79.2c0-3.8-2.5-7-5.6-7c-3.1,0-5.6,3.1-5.6,6.9h-0.2c0-3.8-2.5-6.9-5.6-6.9c-3.1,0-5.6,3.1-5.6,7
				c0,1.7,0.5,3.3,1.3,4.5c2.9,5.5,9.9,9.5,9.9,9.5s7.3-4.1,10.1-9.7C69.2,82.2,69.6,80.8,69.6,79.2z"/>
			<path class="st12" d="M12.9,82.7c0,7.7,7.7,13.9,28.1,13.9c16,0,23.5-5.6,28.4-15.6"/>
		</g>
	</g>
	<g class="st0">
		<path class="st13" d="M145.7-28.1c0,26.9-21.8,28.7-48.7,28.7c-26.9,0-48.7-1.8-48.7-28.7c0-26.9,21.8-48.7,48.7-48.7
			C124-76.7,145.7-54.9,145.7-28.1z"/>
		<g class="st1">
			<line class="st14" x1="93.6" y1="-47.6" x2="100.5" y2="-54.6"/>
			<line class="st14" x1="93.6" y1="-47.6" x2="100.5" y2="-54.6"/>
			<line class="st14" x1="100.5" y1="-47.6" x2="93.6" y2="-54.6"/>
		</g>
		<g class="st1">
			<g>
				<path class="st5" d="M99.2-65.9c-8.9,0-16.1-9.3-16.1-20.7c0-11.4,7.2-20.7,16.1-20.7c8.9,0,16.1,9.3,16.1,20.7
					c0,1.5-0.1,3-0.4,4.6c-0.2,1.4-1.4,2.4-2.9,2.5c0,0-0.1,0-0.1,0c-1.4,0-2.6-1-2.9-2.3c-0.7-3-2.5-5-4.5-5
					c-2.5,0-4.8,3.5-4.8,7.5c0,3.8,1.8,6.5,3.6,7.3c1.2,0.5,1.9,1.6,1.8,2.9c-0.1,1.3-0.9,2.3-2.1,2.7
					C101.8-66.1,100.5-65.9,99.2-65.9z"/>
				<path d="M99.2-104.4c7.2,0,13.1,7.9,13.1,17.7c0,1.4-0.1,2.8-0.4,4.1c-1-4.3-3.9-7.3-7.4-7.3c-4.3,0-7.8,4.7-7.8,10.5
					c0,4.7,2.3,8.7,5.4,10c-1,0.3-2,0.5-3,0.5c-7.2,0-13.1-7.9-13.1-17.7C86.1-96.4,92-104.4,99.2-104.4 M99.2-110.4
					c-10.7,0-19.1,10.4-19.1,23.7c0,13.3,8.4,23.7,19.1,23.7c1.6,0,3.2-0.3,4.8-0.8c2.4-0.8,4.1-2.9,4.2-5.4
					c0.1-2.5-1.3-4.8-3.6-5.8c-0.6-0.3-1.8-1.9-1.8-4.5c0-2.7,1.2-4.3,1.7-4.5c0.3,0.1,1.1,1,1.5,2.7c0.6,2.7,3.1,4.6,5.8,4.6
					c0.1,0,0.1,0,0.2,0c2.9-0.1,5.3-2.2,5.7-5c0.3-1.7,0.4-3.4,0.4-5.1C118.3-99.9,109.9-110.4,99.2-110.4L99.2-110.4z"/>
			</g>
		</g>
		<g class="st1">
			<path class="st15" d="M57.5,10.3c-0.7,3.5-5.2,5.6-10,4.6l-0.5-0.1c-4.8-1-8.1-4.6-7.4-8.1L43.5-12c0.7-3.5,5.2-5.6,10-4.6
				l0.5,0.1c4.8,1,8.1,4.6,7.4,8.1L57.5,10.3z"/>
			<path class="st16" d="M54,7c0.6,0.8,0.3,2-0.5,2.5c-0.8,0.6-2,0.3-2.5-0.5c-0.6-0.8-0.3-2,0.5-2.5C52.4,5.9,53.5,6.1,54,7z"/>
			<path class="st16" d="M50,8.1c0.6,0.8,0.3,2-0.5,2.5c-0.8,0.6-2,0.3-2.5-0.5c-0.6-0.8-0.3-2,0.5-2.5C48.3,7.1,49.5,7.3,50,8.1z"
				/>
			<path class="st16" d="M46.6,5.6c0.6,0.8,0.3,2-0.5,2.5c-0.8,0.6-2,0.3-2.5-0.5c-0.6-0.8-0.3-2,0.5-2.5C44.9,4.6,46,4.8,46.6,5.6z
				"/>
			<path class="st16" d="M51.9,1.8c0.9,1.3,0.5,3.1-0.8,3.9c-1.3,0.9-3.1,0.5-3.9-0.8c-0.9-1.3-0.5-3.1,0.8-3.9
				C49.2,0.1,51,0.5,51.9,1.8z"/>
		</g>
		<g class="st1">
			<path class="st15" d="M136.9,10.3c0.7,3.5,5.2,5.6,10,4.6l0.5-0.1c4.8-1,8.1-4.6,7.4-8.1L151-12c-0.7-3.5-5.2-5.6-10-4.6
				l-0.5,0.1c-4.8,1-8.1,4.6-7.4,8.1L136.9,10.3z"/>
			<path class="st16" d="M140.5,7c-0.6,0.8-0.3,2,0.5,2.5c0.8,0.6,2,0.3,2.5-0.5c0.6-0.8,0.3-2-0.5-2.5S141,6.1,140.5,7z"/>
			<path class="st16" d="M144.5,8.1c-0.6,0.8-0.3,2,0.5,2.5c0.8,0.6,2,0.3,2.5-0.5c0.6-0.8,0.3-2-0.5-2.5
				C146.2,7.1,145,7.3,144.5,8.1z"/>
			<path class="st16" d="M147.9,5.6c-0.6,0.8-0.3,2,0.5,2.5c0.8,0.6,2,0.3,2.5-0.5c0.6-0.8,0.3-2-0.5-2.5
				C149.6,4.6,148.5,4.8,147.9,5.6z"/>
			<path class="st16" d="M142.6,1.8c-0.9,1.3-0.5,3.1,0.8,3.9c1.3,0.9,3.1,0.5,3.9-0.8c0.9-1.3,0.5-3.1-0.8-3.9S143.5,0.5,142.6,1.8
				z"/>
		</g>
	</g>
	<g>
		<path d="M16.6,106.4c0.8,0.8,1.2,1.7,1.1,2.8l-1.9,0.3c0-0.8-0.2-1.4-0.5-1.7c-0.4-0.4-0.8-0.6-1.3-0.6c-0.5,0-0.8,0.1-1.1,0.4
			c-0.3,0.3-0.5,0.8-0.5,1.3c0,0.8,0.3,1.4,0.8,2c0.4,0.4,1.2,0.9,2.6,1.7c1.5,0.8,2.2,2,2.2,3.7c0,1.1-0.4,2-1.1,2.7
			s-1.6,1.1-2.7,1.1c-1.2,0-2.2-0.4-2.9-1.1s-1.1-1.8-1.1-3.2l1.9-0.3c0,1,0.2,1.7,0.6,2c0.4,0.4,0.8,0.6,1.3,0.6
			c0.7,0,1.1-0.2,1.5-0.5c0.3-0.3,0.5-0.8,0.5-1.4c0-1-0.6-1.9-1.8-2.5c-1.2-0.7-2.2-1.3-2.9-2c-0.6-0.6-0.9-1.5-0.9-2.7
			c0-1.1,0.3-1.9,1-2.6c0.7-0.7,1.5-1,2.5-1C15,105.5,15.9,105.8,16.6,106.4z"/>
		<path d="M30.9,119.9h-2.1l-0.6-3.2h-2.8l-0.6,3.2h-2.1l3-14.3h2.3L30.9,119.9z M25.7,115h2.1l-1.1-5.4L25.7,115z"/>
		<path d="M42.2,106.6c0.7,0.7,1,1.5,1,2.4v1.1h-2v-0.7c0-0.7-0.2-1.2-0.5-1.5c-0.3-0.3-0.8-0.5-1.3-0.5c-0.6,0-1,0.2-1.3,0.5
			c-0.4,0.4-0.6,0.9-0.6,1.5v6.8c0,0.7,0.2,1.2,0.6,1.6c0.3,0.3,0.8,0.5,1.3,0.5s1-0.2,1.3-0.5c0.3-0.3,0.4-0.8,0.4-1.6V115h2v1.2
			c0,1.3-0.3,2.3-1,3c-0.7,0.7-1.5,1-2.7,1c-1.4,0-2.3-0.3-3-0.9c-0.7-0.7-1-1.7-1-3V109c0-0.9,0.3-1.7,1-2.4
			c0.7-0.7,1.7-1.1,2.7-1.1C40.5,105.5,41.4,105.8,42.2,106.6z"/>
		<path d="M50.1,111.7h3.7v-6.1h2v14.3h-2v-6.4h-3.7v6.4h-2v-14.3h2V111.7z"/>
		<path d="M65.5,119.9h-2v-14.3h2V119.9z"/>
	</g>
</g>
<g id="レイヤー_2" class="st0">
	<circle class="st17" cx="77.7" cy="28.5" r="141.7"/>
	<path class="st17" d="M148.6-42.3c0,39.1-31.7,70.9-70.9,70.9C38.6,28.6,6.9-3.1,6.9-42.3c0-39.1,31.7-70.9,70.9-70.9
		C116.9-113.1,148.6-81.4,148.6-42.3z"/>
	<path class="st17" d="M148.6,99.3c0,39.1-31.7,70.9-70.9,70.9c-39.1,0-70.9-31.7-70.9-70.9c0-39.1,31.7-70.9,70.9-70.9
		C116.9,28.5,148.6,60.2,148.6,99.3z"/>
	<line class="st17" x1="77.7" y1="-113.3" x2="77.7" y2="170.2"/>
</g>
<g id="レイヤー_5" class="st0">
	
		<image style="display:inline;overflow:visible;" width="800" height="800" xlink:href="64E9CBE3.jpg"  transform="matrix(0.7013 0 0 0.7013 -226.8909 -250)">
	</image>
</g>
<g id="レイヤー_6" class="st0">
	<g class="st1">
		<path class="st18" d="M37.6,196c-0.8,0-1.6-0.1-2.3-0.4l-17-6.5c-2.2-0.9-3.8-2.9-4.1-5.2c-0.3-2.4,0.7-4.7,2.7-6.1
			c15.9-11.3,26.4-43.3,28.8-87.6c0.2-3.5,3.1-6.1,6.5-6.1c0.1,0,0.2,0,0.2,0c3.5,0.1,6.3,3.1,6.3,6.6c-1,54.5-2.7,80.7-15.4,102.2
			C42,194.8,39.9,196,37.6,196z"/>
		<g>
			<path class="st19" d="M52.1,90.5c-1,56-3,79.5-14.5,99l-17-6.5C41.6,168,50.1,127,52.1,90.5 M52.1,77.5c-6.9,0-12.6,5.4-13,12.3
				c-1.1,19.4-3.9,37.2-8.1,51.3c-4.6,15.4-10.8,26.2-18,31.3c-3.9,2.8-5.9,7.5-5.3,12.2c0.6,4.7,3.8,8.8,8.3,10.5l17,6.5
				c1.5,0.6,3.1,0.9,4.6,0.9c4.5,0,8.8-2.3,11.2-6.4c13.5-22.8,15.3-49.6,16.3-105.4c0.1-7.1-5.4-13-12.5-13.2
				C52.4,77.5,52.3,77.5,52.1,77.5L52.1,77.5z"/>
		</g>
	</g>
	<g>
		<path class="st20" d="M72.8,108.8c-16.5,0-30.2-7.6-39.7-21.9c-0.6-1.2-3.5-7.2-5.7-16c-0.7-2.8-3.1-4.9-6-5.3c-0.3,0-0.6,0-0.8,0
			c-2.6,0-5,1.4-6.2,3.8C9.5,78.9-0.3,84.6-14.5,92c-3.2,0.9-6.6,1.4-10,1.4c-25.6,0-50.2-25.5-52.9-28.3
			c-16.7-23.5-23.7-43.4-20.7-59.2c2.2-11.7,9.6-21.6,22.8-30.3c1.1-0.6,6.1-3,13.6-5.1c2.8-0.8,4.8-3.1,5.1-6
			c0.3-2.8-1.1-5.6-3.6-6.9c-9.2-5-16-14.3-21.9-30.1c-8.3-33.7,25.7-60.9,27.5-62.3c17.7-12.6,35.4-19.3,51-19.3
			c16.2,0,29.6,7.1,39,20.5c0.7,1.2,7,12.3,8.6,27.5c0.3,3.1,2.6,5.6,5.7,6.2c0.4,0.1,0.9,0.1,1.3,0.1c2.6,0,5-1.4,6.2-3.8
			c10.7-20.9,16.5-23.6,33.5-31.1c4.3-1.2,8.7-1.8,13-1.8c28.1,0,48,25,49,26.3c15.8,22.2,22.4,43.4,19.1,61.4
			c-2.3,12.5-9.4,22.7-21,30.4c-1.2,0.6-7,3.4-15.4,5.6c-2.6,0.7-4.6,2.8-5.2,5.5c-0.5,2.7,0.6,5.4,2.8,7
			c7.4,5.4,12.7,14.9,18.9,26.7C160.1,55,128,86,124.7,89.1C106.5,102,88.6,108.8,72.8,108.8C72.8,108.8,72.8,108.8,72.8,108.8z"/>
		<path class="st21" d="M-3.7-147.2c13.7,0,25.1,6,33,17.3c0.9,1.7,6.2,11.4,7.5,24.4c0.6,6.2,5.3,11.2,11.3,12.3
			c0.9,0.2,1.7,0.2,2.6,0.2c5.2,0,10-2.9,12.5-7.6c4.9-9.5,8.7-15.1,13-18.6c3.8-3.2,8.6-5.5,16.6-9.1c3.5-0.9,7.1-1.4,10.6-1.4
			c24.2,0,42,21.8,43.4,23.5c14.4,20.3,20.8,40.1,17.8,55.9c-1.9,10.4-7.9,19-17.7,25.6c-1.5,0.7-6.5,3-13.6,4.8
			c-5.3,1.3-9.3,5.6-10.3,10.9c-1,5.3,1.1,10.8,5.5,14c5.5,4,10,11.2,16.5,23.6c5.6,20.9-15.4,46.1-24.8,54.8
			c-16.9,11.9-33.3,18.2-47.5,18.2c-14.1,0-25.4-6.2-33.6-18.4c-0.8-1.5-3.2-6.8-5-14.2c-1.4-5.7-6.1-9.9-11.9-10.5
			c-0.6-0.1-1.1-0.1-1.7-0.1c-5.2,0-10,2.9-12.4,7.5c-3.6,7-10.8,11.7-25.4,19.3c-2.4,0.6-4.8,1-7.4,1c-19.3,0-40.3-18.1-47.4-25.7
			C-87.4,39-93.9,21-91.3,7.2c1.8-9.6,8.2-18,19.5-25.6c1.4-0.7,5.7-2.7,11.9-4.4c5.5-1.5,9.5-6.2,10.2-11.9
			c0.6-5.7-2.2-11.2-7.2-13.9c-7.6-4.1-13.3-12.2-18.6-26.1c-6.7-28.7,22.9-53,25-54.6C-34-141-17.8-147.2-3.7-147.2 M-3.7-161.2
			c-16.5,0-35.4,6.6-55.2,20.7c0,0-40,30.5-30,70c6.5,17.5,14.4,28.3,25.3,34.2c-9.4,2.6-15.3,5.8-15.3,5.8c-36.5,24-34,58-4,100
			c0,0,27.8,30.9,58.3,30.9c4.2,0,8.4-0.6,12.7-1.9c16-8.3,26.7-14.6,32.5-25.9c2.7,10.9,6.5,17.9,6.5,17.9
			c11,16.8,27,25.3,45.7,25.3c17,0,36.3-7,56.3-21.3c0,0,40-36,29-71C151,9.8,145.4,0,136.8-6.2c10.6-2.7,17.3-6.3,17.3-6.3
			c32-21,34-60,4-102c0,0-22-29.1-54.7-29.1c-4.9,0-10,0.7-15.3,2.1c-18,8-25.5,11.5-37.3,34.5c-1.9-18-9.7-30.5-9.7-30.5
			C30.5-152.9,14.9-161.2-3.7-161.2L-3.7-161.2z"/>
	</g>
	<path class="st22" d="M109-61.6c0,0-17.7-23.5-42.7-16.5c-11,4.9-15.5,7-22.7,21.1c-1.1-10.9-5.9-18.6-5.9-18.6
		C25.5-93.3,2.4-95.8-23.2-77.5c0,0-24.4,18.6-18.3,42.7c4,10.7,8.7,17.2,15.4,20.9c-5.7,1.6-9.3,3.5-9.3,3.5
		c-22.2,14.6-20.7,35.3-2.4,60.9c0,0,21.9,24.4,43.3,17.7c9.8-5.1,16.3-8.9,19.8-15.8c1.6,6.7,3.9,10.9,3.9,10.9
		C42,82.8,65.8,84,91.4,65.7c0,0,24.4-21.9,17.7-43.3c-4.3-8.3-7.8-14.3-13-18.1c6.4-1.6,10.5-3.8,10.5-3.8
		C126.1-12.3,127.3-36,109-61.6z"/>
</g>
</svg>
